# xmcd
#
# Track frame offsets:
#	150
#	15650
#	41547
#	65392
#	68545
#	86620
#	105205
#	130335
#	153212
#
# Disc length: 2371 seconds
#
# Revision: 0
# Processed by: cddbd v1.5.2PL0 Copyright (c) Steve Scherf et al.
# Submitted via: dBpowerAMP V4.0
#
DISCID=62094109
DTITLE=Eagles - Eagles live
DYEAR=1980
DGENRE=Country
TTITLE0=Seven bridges road
TTITLE1=Wasted time
TTITLE2=Take it to the limit
TTITLE3=Doolin-dalton
TTITLE4=Desperado
TTITLE5=Saturday night
TTITLE6=All night long
TTITLE7=Life in the fast lane
TTITLE8=Take it easy
EXTD=
EXTT0=
EXTT1=
EXTT2=
EXTT3=
EXTT4=
EXTT5=
EXTT6=
EXTT7=
EXTT8=
PLAYORDER=
